<svg width="63" height="9" viewBox="0 0 63 9" fill="none" xmlns="http://www.w3.org/2000/svg">
<path d="M-1.78814e-06 8.76V1.90735e-06H1.44L4.116 7.5C4.1 7.3 4.08 7.056 4.056 6.768C4.04 6.472 4.024 6.164 4.008 5.844C4 5.516 3.996 5.208 3.996 4.92V1.90735e-06H5.04V8.76H3.6L0.935998 1.26C0.951998 1.452 0.967998 1.696 0.983998 1.992C0.999998 2.28 1.012 2.588 1.02 2.916C1.036 3.236 1.044 3.544 1.044 3.84V8.76H-1.78814e-06ZM7.31531 8.76V1.90735e-06H12.3553V0.984002H8.38331V3.696H11.9353V4.668H8.38331V7.776H12.3553V8.76H7.31531ZM14.5706 8.76V7.776H16.3586V0.984002H14.5706V1.90735e-06H19.2506V0.984002H17.4626V7.776H19.2506V8.76H14.5706ZM21.8859 8.76V1.90735e-06H22.9659V7.776H26.9259V8.76H21.8859ZM36.0006 8.76V1.90735e-06H38.7126C39.2326 1.90735e-06 39.6886 0.108002 40.0806 0.324002C40.4726 0.532002 40.7766 0.824002 40.9926 1.2C41.2086 1.576 41.3166 2.016 41.3166 2.52C41.3166 3.112 41.1606 3.62 40.8486 4.044C40.5446 4.468 40.1286 4.76 39.6006 4.92L41.4366 8.76H40.1646L38.4846 5.04H37.0806V8.76H36.0006ZM37.0806 4.068H38.7126C39.1606 4.068 39.5206 3.928 39.7926 3.648C40.0646 3.36 40.2006 2.984 40.2006 2.52C40.2006 2.048 40.0646 1.672 39.7926 1.392C39.5206 1.112 39.1606 0.972002 38.7126 0.972002H37.0806V4.068ZM42.6919 8.76L44.9719 1.90735e-06H46.4239L48.6919 8.76H47.5999L47.0239 6.432H44.3719L43.7959 8.76H42.6919ZM44.5879 5.52H46.7959L46.1239 2.82C45.9959 2.308 45.8959 1.88 45.8239 1.536C45.7519 1.192 45.7079 0.968002 45.6919 0.864002C45.6759 0.968002 45.6319 1.192 45.5599 1.536C45.4879 1.88 45.3879 2.304 45.2599 2.808L44.5879 5.52ZM52.3472 8.76V5.484L49.7072 1.90735e-06H50.8232L52.5632 3.6C52.6592 3.8 52.7352 3.972 52.7912 4.116C52.8472 4.252 52.8832 4.352 52.8992 4.416C52.9152 4.352 52.9512 4.252 53.0072 4.116C53.0712 3.972 53.1512 3.8 53.2472 3.6L54.9512 1.90735e-06H56.0672L53.4272 5.484V8.76H52.3472ZM60.0825 8.88C59.2665 8.88 58.6425 8.656 58.2105 8.208C57.7785 7.752 57.5625 7.136 57.5625 6.36V1.90735e-06H58.6425V6.36C58.6425 6.84 58.7585 7.22 58.9905 7.5C59.2305 7.78 59.5945 7.92 60.0825 7.92C60.5625 7.92 60.9225 7.78 61.1625 7.5C61.4025 7.22 61.5225 6.84 61.5225 6.36V1.90735e-06H62.6025V6.36C62.6025 7.144 62.3865 7.76 61.9545 8.208C61.5305 8.656 60.9065 8.88 60.0825 8.88Z" fill="black"/>
</svg>
