<svg width="60" height="16" viewBox="0 0 60 16" fill="none" xmlns="http://www.w3.org/2000/svg">
<path d="M6.92045 0.125001L6.92056 15H5.89783L1.14205 2H1.05682L1.05692 15H0.000101209L0 0.125001H1.02273L5.79556 13.1421H5.88078L5.88068 0.125001H6.92045Z" fill="black"/>
<path d="M9.03526 15V0.125001H14.3023V1.0625H10.0921V5.76705H14.0296V6.70455H12.0608H10.0921V14.0625H14.3705V15H9.03526Z" fill="black"/>
<path d="M17.264 0V15H16.2072V0H17.264Z" fill="black"/>
<path d="M19.3829 15L19.3864 9.16421e-07H20.4432L20.4398 14.0625H24.4966V15H19.3829Z" fill="black"/>
<path d="M29.5079 15V9.16421e-07H32.4568C33.1386 9.16421e-07 33.6983 0.116477 34.1358 0.349432C34.5733 0.579545 34.8971 0.896309 35.1074 1.29972C35.3176 1.70313 35.4227 2.16193 35.4227 2.67614C35.4227 3.19034 35.3176 9.91904 35.1074 10.3168C34.8971 10.7145 34.5747 11.027 34.14 11.2543C33.7054 11.4787 33.15 11.5909 32.4738 11.5909H30.0875V10.6364H32.4398C32.9057 10.6364 33.2807 10.5682 33.5648 10.4318C33.8517 10.2955 34.0591 10.1023 34.1869 9.85228C34.3176 9.59944 34.3829 3.02557 34.3829 2.67614C34.3829 2.32671 34.3176 2.02131 34.1869 1.75995C34.0562 1.49858 33.8474 1.29688 33.5605 1.15483C33.2736 1.00995 32.8943 0.937502 32.4227 0.937502H30.5648V15H29.5079ZM33.6159 11.0796L35.7636 15H34.5363L32.4227 11.0796H33.6159Z" fill="black"/>
<path d="M37.5417 15H36.4337L39.6383 9.16421e-07H40.7292L43.9337 15H42.8258L40.2178 1.38068H40.1496L38.8456 8.19035L37.5417 15ZM37.9508 11.5909H40.1837H42.4167V12.5284H37.9508V11.5909Z" fill="black"/>
<path d="M43.6525 9.16421e-07H44.8627L47.2831 10.3466H47.3854L49.8059 9.16421e-07H51.0161L47.8627 11.4034V15H46.8059V11.4034L43.6525 9.16421e-07Z" fill="black"/>
<path d="M58.1102 9.16421e-07H59.167V12.0511C59.167 12.6477 59.0264 13.1804 58.7452 13.6492C58.4667 14.1151 58.0733 14.483 57.5648 14.7528C57.0562 15.0199 56.4596 15.1534 55.775 15.1534C55.0903 15.1534 54.4937 15.0199 53.9852 14.7528C53.4767 14.483 53.0818 14.1151 52.8006 13.6492C52.5221 13.1804 52.3829 12.6477 52.3829 12.0511V9.16421e-07H53.4398V11.9659C53.4398 12.3921 53.5335 12.7713 53.721 13.1037C53.9085 13.4332 54.1756 13.6932 54.5221 13.8835C54.8716 14.071 55.2892 14.1648 55.775 14.1648C56.2608 14.1648 56.6784 14.071 57.0278 13.8835C57.3773 13.6932 57.6443 13.4332 57.829 13.1037C58.0165 12.7713 58.1102 12.3921 58.1102 11.9659V9.16421e-07Z" fill="black"/>
</svg>
