<svg width="65" height="21" viewBox="0 0 65 21" fill="none" xmlns="http://www.w3.org/2000/svg">
<g filter="url(#filter0_d_0_1)">
<mask id="path-1-outside-1_0_1" maskUnits="userSpaceOnUse" x="1.5" y="0.5" width="61" height="17" fill="black">
<rect fill="white" x="1.5" y="0.5" width="61" height="17"/>
<path d="M9.42045 1.625L9.42056 16.5H8.39783L3.64205 3.5H3.55682L3.55692 16.5H2.5001L2.5 1.625H3.52273L8.29556 14.6421H8.38078L8.38068 1.625H9.42045Z"/>
<path d="M11.5353 16.5V1.625H16.8023V2.5625H12.5921V7.26705H16.5296V8.20455H14.5608H12.5921V15.5625H16.8705V16.5H11.5353Z"/>
<path d="M19.764 1.5V16.5H18.7072V1.5H19.764Z"/>
<path d="M21.8829 16.5L21.8864 1.5H22.9432L22.9398 15.5625H26.9966V16.5H21.8829Z"/>
<path d="M32.0079 16.5V1.5H34.9568C35.6386 1.5 36.1983 1.61648 36.6358 1.84943C37.0733 2.07955 37.3971 2.39631 37.6074 2.79972C37.8176 3.20313 37.9227 3.66193 37.9227 4.17614C37.9227 4.69034 37.8176 11.419 37.6074 11.8168C37.3971 12.2145 37.0747 12.527 36.64 12.7543C36.2054 12.9787 35.65 13.0909 34.9738 13.0909H32.5875V12.1364H34.9398C35.4057 12.1364 35.7807 12.0682 36.0648 11.9318C36.3517 11.7955 36.5591 11.6023 36.6869 11.3523C36.8176 11.0994 36.8829 4.52557 36.8829 4.17614C36.8829 3.82671 36.8176 3.52131 36.6869 3.25995C36.5562 2.99858 36.3474 2.79688 36.0605 2.65483C35.7736 2.50995 35.3943 2.4375 34.9227 2.4375H33.0648V16.5H32.0079ZM36.1159 12.5796L38.2636 16.5H37.0363L34.9227 12.5796H36.1159Z"/>
<path d="M40.0417 16.5H38.9337L42.1383 1.5H43.2292L46.4337 16.5H45.3258L42.7178 2.88068H42.6496L41.3456 9.69035L40.0417 16.5ZM40.4508 13.0909H42.6837H44.9167V14.0284H40.4508V13.0909Z"/>
<path d="M46.1525 1.5H47.3627L49.7831 11.8466H49.8854L52.3059 1.5H53.5161L50.3627 12.9034V16.5H49.3059V12.9034L46.1525 1.5Z"/>
<path d="M60.6102 1.5H61.667V13.5511C61.667 14.1477 61.5264 14.6804 61.2452 15.1492C60.9667 15.6151 60.5733 15.983 60.0648 16.2528C59.5562 16.5199 58.9596 16.6534 58.275 16.6534C57.5903 16.6534 56.9937 16.5199 56.4852 16.2528C55.9767 15.983 55.5818 15.6151 55.3006 15.1492C55.0221 14.6804 54.8829 14.1477 54.8829 13.5511V1.5H55.9398V13.4659C55.9398 13.8921 56.0335 14.2713 56.221 14.6037C56.4085 14.9332 56.6756 15.1932 57.0221 15.3835C57.3716 15.571 57.7892 15.6648 58.275 15.6648C58.7608 15.6648 59.1784 15.571 59.5278 15.3835C59.8773 15.1932 60.1443 14.9332 60.329 14.6037C60.5165 14.2713 60.6102 13.8921 60.6102 13.4659V1.5Z"/>
</mask>
<path d="M9.42045 1.625L9.42056 16.5H8.39783L3.64205 3.5H3.55682L3.55692 16.5H2.5001L2.5 1.625H3.52273L8.29556 14.6421H8.38078L8.38068 1.625H9.42045Z" fill="#5B9BD5"/>
<path d="M11.5353 16.5V1.625H16.8023V2.5625H12.5921V7.26705H16.5296V8.20455H14.5608H12.5921V15.5625H16.8705V16.5H11.5353Z" fill="#5B9BD5"/>
<path d="M19.764 1.5V16.5H18.7072V1.5H19.764Z" fill="#5B9BD5"/>
<path d="M21.8829 16.5L21.8864 1.5H22.9432L22.9398 15.5625H26.9966V16.5H21.8829Z" fill="#5B9BD5"/>
<path d="M32.0079 16.5V1.5H34.9568C35.6386 1.5 36.1983 1.61648 36.6358 1.84943C37.0733 2.07955 37.3971 2.39631 37.6074 2.79972C37.8176 3.20313 37.9227 3.66193 37.9227 4.17614C37.9227 4.69034 37.8176 11.419 37.6074 11.8168C37.3971 12.2145 37.0747 12.527 36.64 12.7543C36.2054 12.9787 35.65 13.0909 34.9738 13.0909H32.5875V12.1364H34.9398C35.4057 12.1364 35.7807 12.0682 36.0648 11.9318C36.3517 11.7955 36.5591 11.6023 36.6869 11.3523C36.8176 11.0994 36.8829 4.52557 36.8829 4.17614C36.8829 3.82671 36.8176 3.52131 36.6869 3.25995C36.5562 2.99858 36.3474 2.79688 36.0605 2.65483C35.7736 2.50995 35.3943 2.4375 34.9227 2.4375H33.0648V16.5H32.0079ZM36.1159 12.5796L38.2636 16.5H37.0363L34.9227 12.5796H36.1159Z" fill="#5B9BD5"/>
<path d="M40.0417 16.5H38.9337L42.1383 1.5H43.2292L46.4337 16.5H45.3258L42.7178 2.88068H42.6496L41.3456 9.69035L40.0417 16.5ZM40.4508 13.0909H42.6837H44.9167V14.0284H40.4508V13.0909Z" fill="#5B9BD5"/>
<path d="M46.1525 1.5H47.3627L49.7831 11.8466H49.8854L52.3059 1.5H53.5161L50.3627 12.9034V16.5H49.3059V12.9034L46.1525 1.5Z" fill="#5B9BD5"/>
<path d="M60.6102 1.5H61.667V13.5511C61.667 14.1477 61.5264 14.6804 61.2452 15.1492C60.9667 15.6151 60.5733 15.983 60.0648 16.2528C59.5562 16.5199 58.9596 16.6534 58.275 16.6534C57.5903 16.6534 56.9937 16.5199 56.4852 16.2528C55.9767 15.983 55.5818 15.6151 55.3006 15.1492C55.0221 14.6804 54.8829 14.1477 54.8829 13.5511V1.5H55.9398V13.4659C55.9398 13.8921 56.0335 14.2713 56.221 14.6037C56.4085 14.9332 56.6756 15.1932 57.0221 15.3835C57.3716 15.571 57.7892 15.6648 58.275 15.6648C58.7608 15.6648 59.1784 15.571 59.5278 15.3835C59.8773 15.1932 60.1443 14.9332 60.329 14.6037C60.5165 14.2713 60.6102 13.8921 60.6102 13.4659V1.5Z" fill="#5B9BD5"/>
<path d="M9.42045 1.625L9.42056 16.5H8.39783L3.64205 3.5H3.55682L3.55692 16.5H2.5001L2.5 1.625H3.52273L8.29556 14.6421H8.38078L8.38068 1.625H9.42045Z" stroke="#5B9BD5" mask="url(#path-1-outside-1_0_1)"/>
<path d="M11.5353 16.5V1.625H16.8023V2.5625H12.5921V7.26705H16.5296V8.20455H14.5608H12.5921V15.5625H16.8705V16.5H11.5353Z" stroke="#5B9BD5" mask="url(#path-1-outside-1_0_1)"/>
<path d="M19.764 1.5V16.5H18.7072V1.5H19.764Z" stroke="#5B9BD5" mask="url(#path-1-outside-1_0_1)"/>
<path d="M21.8829 16.5L21.8864 1.5H22.9432L22.9398 15.5625H26.9966V16.5H21.8829Z" stroke="#5B9BD5" mask="url(#path-1-outside-1_0_1)"/>
<path d="M32.0079 16.5V1.5H34.9568C35.6386 1.5 36.1983 1.61648 36.6358 1.84943C37.0733 2.07955 37.3971 2.39631 37.6074 2.79972C37.8176 3.20313 37.9227 3.66193 37.9227 4.17614C37.9227 4.69034 37.8176 11.419 37.6074 11.8168C37.3971 12.2145 37.0747 12.527 36.64 12.7543C36.2054 12.9787 35.65 13.0909 34.9738 13.0909H32.5875V12.1364H34.9398C35.4057 12.1364 35.7807 12.0682 36.0648 11.9318C36.3517 11.7955 36.5591 11.6023 36.6869 11.3523C36.8176 11.0994 36.8829 4.52557 36.8829 4.17614C36.8829 3.82671 36.8176 3.52131 36.6869 3.25995C36.5562 2.99858 36.3474 2.79688 36.0605 2.65483C35.7736 2.50995 35.3943 2.4375 34.9227 2.4375H33.0648V16.5H32.0079ZM36.1159 12.5796L38.2636 16.5H37.0363L34.9227 12.5796H36.1159Z" stroke="#5B9BD5" mask="url(#path-1-outside-1_0_1)"/>
<path d="M40.0417 16.5H38.9337L42.1383 1.5H43.2292L46.4337 16.5H45.3258L42.7178 2.88068H42.6496L41.3456 9.69035L40.0417 16.5ZM40.4508 13.0909H42.6837H44.9167V14.0284H40.4508V13.0909Z" stroke="#5B9BD5" mask="url(#path-1-outside-1_0_1)"/>
<path d="M46.1525 1.5H47.3627L49.7831 11.8466H49.8854L52.3059 1.5H53.5161L50.3627 12.9034V16.5H49.3059V12.9034L46.1525 1.5Z" stroke="#5B9BD5" mask="url(#path-1-outside-1_0_1)"/>
<path d="M60.6102 1.5H61.667V13.5511C61.667 14.1477 61.5264 14.6804 61.2452 15.1492C60.9667 15.6151 60.5733 15.983 60.0648 16.2528C59.5562 16.5199 58.9596 16.6534 58.275 16.6534C57.5903 16.6534 56.9937 16.5199 56.4852 16.2528C55.9767 15.983 55.5818 15.6151 55.3006 15.1492C55.0221 14.6804 54.8829 14.1477 54.8829 13.5511V1.5H55.9398V13.4659C55.9398 13.8921 56.0335 14.2713 56.221 14.6037C56.4085 14.9332 56.6756 15.1932 57.0221 15.3835C57.3716 15.571 57.7892 15.6648 58.275 15.6648C58.7608 15.6648 59.1784 15.571 59.5278 15.3835C59.8773 15.1932 60.1443 14.9332 60.329 14.6037C60.5165 14.2713 60.6102 13.8921 60.6102 13.4659V1.5Z" stroke="#5B9BD5" mask="url(#path-1-outside-1_0_1)"/>
</g>
<defs>
<filter id="filter0_d_0_1" x="0" y="0" width="64.167" height="20.1534" filterUnits="userSpaceOnUse" color-interpolation-filters="sRGB">
<feFlood flood-opacity="0" result="BackgroundImageFix"/>
<feColorMatrix in="SourceAlpha" type="matrix" values="0 0 0 0 0 0 0 0 0 0 0 0 0 0 0 0 0 0 127 0" result="hardAlpha"/>
<feOffset dy="1"/>
<feGaussianBlur stdDeviation="1"/>
<feComposite in2="hardAlpha" operator="out"/>
<feColorMatrix type="matrix" values="0 0 0 0 0 0 0 0 0 0 0 0 0 0 0 0 0 0 0.42 0"/>
<feBlend mode="normal" in2="BackgroundImageFix" result="effect1_dropShadow_0_1"/>
<feBlend mode="normal" in="SourceGraphic" in2="effect1_dropShadow_0_1" result="shape"/>
</filter>
</defs>
</svg>
