<svg width="61" height="11" viewBox="0 0 61 11" fill="none" xmlns="http://www.w3.org/2000/svg">
<mask id="path-1-outside-1_1_2" maskUnits="userSpaceOnUse" x="-0.690002" y="-0.57" width="62" height="11" fill="black">
<rect fill="white" x="-0.690002" y="-0.57" width="62" height="11"/>
<path d="M8.266 9.598L1.978 1.582C1.922 1.51 1.858 1.438 1.786 1.366C1.722 1.294 1.662 1.234 1.606 1.186V8.05C1.606 8.394 1.71 8.69 1.918 8.938C2.126 9.186 2.402 9.31 2.746 9.31V9.43H0.249998V9.31C0.601998 9.31 0.881998 9.186 1.09 8.938C1.298 8.69 1.402 8.39 1.402 8.038V1.018C1.042 0.746 0.661998 0.59 0.261998 0.55V0.43H3.346L8.062 6.514V1.81C8.062 1.466 7.958 1.17 7.75 0.922C7.542 0.674 7.266 0.55 6.922 0.55V0.43H9.406V0.55C9.062 0.55 8.786 0.674 8.578 0.922C8.37 1.17 8.266 1.466 8.266 1.81V9.598ZM9.10131 9.43L9.11331 9.31H9.12531C9.41331 9.31 9.64531 9.234 9.82131 9.082C9.99731 8.93 10.0853 8.71 10.0853 8.422V1.51C10.0853 1.222 9.99731 0.99 9.82131 0.814C9.64531 0.638 9.41331 0.55 9.12531 0.55L9.11331 0.43H15.5453L15.9053 2.842H15.7853C15.5453 1.338 14.5973 0.586 12.9413 0.586H11.9333V4.054H13.0133C13.4133 4.054 13.7333 3.934 13.9733 3.694C14.2133 3.446 14.3333 3.122 14.3333 2.722H14.4533V5.674H14.3333C14.3253 5.242 14.1893 4.89 13.9253 4.618C13.6613 4.346 13.3133 4.21 12.8813 4.21H11.9333V8.422C11.9333 8.99 12.2133 9.274 12.7733 9.274H13.2773C14.0533 9.274 14.6693 9.074 15.1253 8.674C15.5813 8.274 15.8733 7.646 16.0013 6.79H16.1213L15.7613 9.43H9.10131ZM16.2827 9.43V9.31H16.2947C16.5827 9.31 16.8147 9.222 16.9907 9.046C17.1667 8.87 17.2547 8.638 17.2547 8.35V1.51C17.2547 1.222 17.1667 0.99 16.9907 0.814C16.8147 0.638 16.5827 0.55 16.2947 0.55H16.2827V0.43H20.0867V0.55H20.0747C19.7867 0.55 19.5547 0.638 19.3787 0.814C19.2027 0.99 19.1147 1.222 19.1147 1.51V8.35C19.1147 8.638 19.2027 8.87 19.3787 9.046C19.5547 9.222 19.7867 9.31 20.0747 9.31H20.0867V9.43H16.2827ZM19.9506 9.43V9.31H19.9626C20.2506 9.31 20.4826 9.234 20.6586 9.082C20.8346 8.93 20.9226 8.71 20.9226 8.422V1.51C20.9226 1.222 20.8346 0.99 20.6586 0.814C20.4826 0.638 20.2506 0.55 19.9626 0.55H19.9506V0.43H23.7786V0.55H23.7306C23.4426 0.55 23.2106 0.638 23.0346 0.814C22.8586 0.99 22.7706 1.222 22.7706 1.51V8.47C22.7706 8.726 22.8306 8.926 22.9506 9.07C23.0786 9.206 23.2986 9.274 23.6106 9.274H23.8626C24.5746 9.274 25.1746 9.054 25.6626 8.614C26.1506 8.174 26.4586 7.554 26.5866 6.754H26.7066L26.3466 9.43H19.9506ZM29.2436 9.43V9.31C29.5316 9.31 29.7636 9.222 29.9396 9.046C30.1156 8.87 30.2036 8.638 30.2036 8.35V1.51C30.2036 1.222 30.1156 0.99 29.9396 0.814C29.7636 0.638 29.5316 0.55 29.2436 0.55V0.43H33.2516C33.8276 0.43 34.3276 0.53 34.7516 0.73C35.1836 0.922 35.5156 1.194 35.7476 1.546C35.9876 1.89 36.1076 2.294 36.1076 2.758C36.1076 3.342 35.9276 3.842 35.5676 4.258C35.2076 4.674 34.7196 4.926 34.1036 5.014C34.2396 5.054 34.3996 5.174 34.5836 5.374C34.7756 5.574 34.9596 5.822 35.1356 6.118L36.6476 8.71C36.7596 8.894 36.8916 9.042 37.0436 9.154C37.2036 9.258 37.3796 9.31 37.5716 9.31V9.43H35.0876C34.9756 9.246 34.8556 9.046 34.7276 8.83C34.6076 8.614 34.4956 8.414 34.3916 8.23L33.2156 6.07C33.0716 5.806 32.9476 5.602 32.8436 5.458C32.7476 5.306 32.6476 5.202 32.5436 5.146C32.4476 5.09 32.3236 5.062 32.1716 5.062H32.0516V8.35C32.0516 8.638 32.1396 8.87 32.3156 9.046C32.4916 9.222 32.7236 9.31 33.0116 9.31H33.0356V9.43H29.2436ZM32.0516 4.906H32.6636C33.1836 4.906 33.5956 4.706 33.8996 4.306C34.2116 3.906 34.3676 3.386 34.3676 2.746C34.3676 2.098 34.2196 1.578 33.9236 1.186C33.6276 0.786 33.2356 0.586 32.7476 0.586H32.0516V4.906ZM36.9829 9.43V9.31C37.1349 9.294 37.2869 9.222 37.4389 9.094C37.5989 8.958 37.7469 8.79 37.8829 8.59C38.0189 8.39 38.1229 8.194 38.1949 8.002L41.3629 0.25H41.4709L44.5909 8.002C44.9429 8.874 45.3349 9.31 45.7669 9.31H45.8029V9.43H41.9629V9.31H42.0109C42.3709 9.31 42.6109 9.202 42.7309 8.986C42.8589 8.762 42.8429 8.454 42.6829 8.062L41.9629 6.274H39.0709L38.3989 7.942C38.2549 8.286 38.2709 8.598 38.4469 8.878C38.6309 9.15 38.9229 9.294 39.3229 9.31V9.43H36.9829ZM39.1309 6.118H41.9029L40.5349 2.662L39.1309 6.118ZM45.7811 9.43L45.7931 9.31H45.8171C46.1051 9.31 46.3371 9.222 46.5131 9.046C46.6891 8.87 46.7771 8.638 46.7771 8.35V4.27L44.2571 1.006C44.1531 0.87 44.0291 0.762 43.8851 0.682C43.7491 0.594 43.5771 0.55 43.3691 0.55H43.3571V0.43H47.4251V0.55C46.9851 0.55 46.7131 0.678 46.6091 0.934C46.5131 1.182 46.5891 1.478 46.8371 1.822L48.3971 3.934L49.8491 1.978C50.1531 1.562 50.2691 1.222 50.1971 0.958C50.1251 0.686 49.8491 0.55 49.3691 0.55V0.43H51.6491V0.55C51.3771 0.566 51.1331 0.686 50.9171 0.91C50.7091 1.134 50.4691 1.426 50.1971 1.786L48.5171 4.054V8.35C48.5171 8.63 48.6051 8.862 48.7811 9.046C48.9571 9.222 49.1811 9.31 49.4531 9.31H49.4771L49.4891 9.43H45.7811ZM55.7612 9.598C55.0572 9.598 54.4452 9.462 53.9252 9.19C53.4052 8.918 53.0012 8.534 52.7132 8.038C52.4332 7.534 52.2932 6.946 52.2932 6.274V1.51C52.2932 1.222 52.2052 0.99 52.0292 0.814C51.8532 0.638 51.6212 0.55 51.3332 0.55H51.2852V0.43H55.1492V0.55H55.1132C54.8252 0.55 54.5932 0.638 54.4172 0.814C54.2412 0.99 54.1532 1.222 54.1532 1.51V6.274C54.1532 7.122 54.3692 7.794 54.8012 8.29C55.2412 8.778 55.8332 9.022 56.5772 9.022C57.3292 9.022 57.9212 8.774 58.3532 8.278C58.7852 7.774 59.0012 7.106 59.0012 6.274V1.69C59.0012 1.346 58.8972 1.074 58.6892 0.874C58.4812 0.674 58.2052 0.566 57.8612 0.55V0.43H60.3452V0.55C60.0012 0.566 59.7252 0.674 59.5172 0.874C59.3092 1.074 59.2052 1.346 59.2052 1.69V6.274C59.2052 6.946 59.0652 7.53 58.7852 8.026C58.5132 8.522 58.1172 8.91 57.5972 9.19C57.0852 9.462 56.4732 9.598 55.7612 9.598Z"/>
</mask>
<path d="M8.266 9.598L8.0693 9.7523L8.516 10.3218V9.598H8.266ZM1.978 1.582L1.78066 1.73549L1.7813 1.7363L1.978 1.582ZM1.786 1.366L1.59915 1.53209L1.60403 1.53758L1.60922 1.54278L1.786 1.366ZM1.606 1.186L1.7687 0.996185L1.356 0.642446V1.186H1.606ZM1.918 8.938L1.72645 9.09865L1.72645 9.09865L1.918 8.938ZM2.746 9.31H2.996V9.06H2.746V9.31ZM2.746 9.43V9.68H2.996V9.43H2.746ZM0.249998 9.43H-2.44565e-06V9.68H0.249998V9.43ZM0.249998 9.31V9.06H-2.44565e-06V9.31H0.249998ZM1.09 8.938L1.28155 9.09865L1.28155 9.09865L1.09 8.938ZM1.402 1.018H1.652V0.893553L1.55271 0.818533L1.402 1.018ZM0.261998 0.55H0.0119976V0.776247L0.237122 0.798759L0.261998 0.55ZM0.261998 0.43V0.18H0.0119976V0.43H0.261998ZM3.346 0.43L3.54359 0.276838L3.46852 0.18H3.346V0.43ZM8.062 6.514L7.86441 6.66716L8.312 7.24459V6.514H8.062ZM7.75 0.922L7.55845 1.08265L7.55845 1.08265L7.75 0.922ZM6.922 0.55H6.672V0.8H6.922V0.55ZM6.922 0.43V0.18H6.672V0.43H6.922ZM9.406 0.43H9.656V0.18H9.406V0.43ZM9.406 0.55V0.8H9.656V0.55H9.406ZM8.578 0.922L8.38645 0.761346L8.38645 0.761347L8.578 0.922ZM8.266 9.598L8.4627 9.4437L2.1747 1.4277L1.978 1.582L1.7813 1.7363L8.0693 9.7523L8.266 9.598ZM1.978 1.582L2.17534 1.42851C2.11229 1.34745 2.04127 1.26772 1.96277 1.18922L1.786 1.366L1.60922 1.54278C1.67472 1.60828 1.73171 1.67254 1.78066 1.73549L1.978 1.582ZM1.786 1.366L1.97285 1.19991C1.90348 1.12186 1.83541 1.05337 1.7687 0.996185L1.606 1.186L1.4433 1.37581C1.48859 1.41463 1.54052 1.46614 1.59915 1.53209L1.786 1.366ZM1.606 1.186H1.356V8.05H1.606H1.856V1.186H1.606ZM1.606 8.05H1.356C1.356 8.44877 1.47821 8.80267 1.72645 9.09865L1.918 8.938L2.10955 8.77735C1.94179 8.57733 1.856 8.33923 1.856 8.05H1.606ZM1.918 8.938L1.72645 9.09865C1.98525 9.40723 2.33338 9.56 2.746 9.56V9.31V9.06C2.47062 9.06 2.26674 8.96477 2.10955 8.77735L1.918 8.938ZM2.746 9.31H2.496V9.43H2.746H2.996V9.31H2.746ZM2.746 9.43V9.18H0.249998V9.43V9.68H2.746V9.43ZM0.249998 9.43H0.499998V9.31H0.249998H-2.44565e-06V9.43H0.249998ZM0.249998 9.31V9.56C0.668575 9.56 1.02152 9.40868 1.28155 9.09865L1.09 8.938L0.89845 8.77735C0.742474 8.96332 0.53542 9.06 0.249998 9.06V9.31ZM1.09 8.938L1.28155 9.09865C1.53071 8.80158 1.652 8.44323 1.652 8.038H1.402H1.152C1.152 8.33677 1.06529 8.57842 0.89845 8.77735L1.09 8.938ZM1.402 8.038H1.652V1.018H1.402H1.152V8.038H1.402ZM1.402 1.018L1.55271 0.818533C1.16068 0.522338 0.737964 0.34635 0.286873 0.301241L0.261998 0.55L0.237122 0.798759C0.586031 0.83365 0.923312 0.969662 1.25129 1.21747L1.402 1.018ZM0.261998 0.55H0.511998V0.43H0.261998H0.0119976V0.55H0.261998ZM0.261998 0.43V0.68H3.346V0.43V0.18H0.261998V0.43ZM3.346 0.43L3.14841 0.583161L7.86441 6.66716L8.062 6.514L8.25959 6.36084L3.54359 0.276838L3.346 0.43ZM8.062 6.514H8.312V1.81H8.062H7.812V6.514H8.062ZM8.062 1.81H8.312C8.312 1.41123 8.18979 1.05733 7.94155 0.761347L7.75 0.922L7.55845 1.08265C7.72621 1.28267 7.812 1.52077 7.812 1.81H8.062ZM7.75 0.922L7.94155 0.761347C7.68274 0.452772 7.33462 0.3 6.922 0.3V0.55V0.8C7.19738 0.8 7.40126 0.895228 7.55845 1.08265L7.75 0.922ZM6.922 0.55H7.172V0.43H6.922H6.672V0.55H6.922ZM6.922 0.43V0.68H9.406V0.43V0.18H6.922V0.43ZM9.406 0.43H9.156V0.55H9.406H9.656V0.43H9.406ZM9.406 0.55V0.3C8.99338 0.3 8.64526 0.452772 8.38645 0.761346L8.578 0.922L8.76955 1.08265C8.92674 0.895228 9.13062 0.8 9.406 0.8V0.55ZM8.578 0.922L8.38645 0.761347C8.13821 1.05733 8.016 1.41123 8.016 1.81H8.266H8.516C8.516 1.52077 8.60179 1.28267 8.76955 1.08265L8.578 0.922ZM8.266 1.81H8.016V9.598H8.266H8.516V1.81H8.266ZM9.10131 9.43L8.85255 9.40512L8.82506 9.68H9.10131V9.43ZM9.11331 9.31V9.06H8.88706L8.86455 9.28512L9.11331 9.31ZM9.82131 9.082L9.65791 8.89279L9.65791 8.89279L9.82131 9.082ZM9.82131 0.814L9.99809 0.637223L9.99809 0.637223L9.82131 0.814ZM9.12531 0.55L8.87655 0.574876L8.89906 0.8H9.12531V0.55ZM9.11331 0.43V0.18H8.83706L8.86455 0.454875L9.11331 0.43ZM15.5453 0.43L15.7926 0.393095L15.7608 0.18H15.5453V0.43ZM15.9053 2.842V3.092H16.1954L16.1526 2.8051L15.9053 2.842ZM15.7853 2.842L15.5384 2.8814L15.572 3.092H15.7853V2.842ZM11.9333 0.586V0.336H11.6833V0.586H11.9333ZM11.9333 4.054H11.6833V4.304H11.9333V4.054ZM13.9733 3.694L14.1501 3.8708L14.153 3.86786L13.9733 3.694ZM14.3333 2.722V2.472H14.0833V2.722H14.3333ZM14.4533 2.722H14.7033V2.472H14.4533V2.722ZM14.4533 5.674V5.924H14.7033V5.674H14.4533ZM14.3333 5.674L14.0834 5.67863L14.0879 5.924H14.3333V5.674ZM13.9253 4.618L14.1047 4.44388L14.1047 4.44388L13.9253 4.618ZM11.9333 4.21V3.96H11.6833V4.21H11.9333ZM15.1253 8.674L15.2902 8.86194L15.2902 8.86194L15.1253 8.674ZM16.0013 6.79V6.54H15.7859L15.7541 6.75303L16.0013 6.79ZM16.1213 6.79L16.369 6.82378L16.4077 6.54H16.1213V6.79ZM15.7613 9.43V9.68H15.9795L16.009 9.46378L15.7613 9.43ZM9.10131 9.43L9.35007 9.45488L9.36207 9.33488L9.11331 9.31L8.86455 9.28512L8.85255 9.40512L9.10131 9.43ZM9.11331 9.31V9.56H9.12531V9.31V9.06H9.11331V9.31ZM9.12531 9.31V9.56C9.45848 9.56 9.75322 9.47114 9.98472 9.27121L9.82131 9.082L9.65791 8.89279C9.5374 8.99686 9.36814 9.06 9.12531 9.06V9.31ZM9.82131 9.082L9.98472 9.27121C10.2285 9.06067 10.3353 8.76386 10.3353 8.422H10.0853H9.83531C9.83531 8.65615 9.76613 8.79933 9.65791 8.89279L9.82131 9.082ZM10.0853 8.422H10.3353V1.51H10.0853H9.83531V8.422H10.0853ZM10.0853 1.51H10.3353C10.3353 1.16697 10.2284 0.867519 9.99809 0.637223L9.82131 0.814L9.64453 0.990776C9.76624 1.11248 9.83531 1.27703 9.83531 1.51H10.0853ZM9.82131 0.814L9.99809 0.637223C9.76779 0.406927 9.46834 0.3 9.12531 0.3V0.55V0.8C9.35828 0.8 9.52283 0.869073 9.64453 0.990777L9.82131 0.814ZM9.12531 0.55L9.37407 0.525124L9.36207 0.405124L9.11331 0.43L8.86455 0.454875L8.87655 0.574876L9.12531 0.55ZM9.11331 0.43V0.68H15.5453V0.43V0.18H9.11331V0.43ZM15.5453 0.43L15.298 0.466904L15.658 2.8789L15.9053 2.842L16.1526 2.8051L15.7926 0.393095L15.5453 0.43ZM15.9053 2.842V2.592H15.7853V2.842V3.092H15.9053V2.842ZM15.7853 2.842L16.0322 2.8026C15.905 2.00546 15.5844 1.37834 15.0497 0.954139C14.5177 0.532126 13.8051 0.336 12.9413 0.336V0.586V0.836C13.7335 0.836 14.3229 1.01587 14.7389 1.34586C15.1522 1.67366 15.4256 2.17454 15.5384 2.8814L15.7853 2.842ZM12.9413 0.586V0.336H11.9333V0.586V0.836H12.9413V0.586ZM11.9333 0.586H11.6833V4.054H11.9333H12.1833V0.586H11.9333ZM11.9333 4.054V4.304H13.0133V4.054V3.804H11.9333V4.054ZM13.0133 4.054V4.304C13.4669 4.304 13.8549 4.16596 14.1501 3.87078L13.9733 3.694L13.7965 3.51722C13.6117 3.70204 13.3597 3.804 13.0133 3.804V4.054ZM13.9733 3.694L14.153 3.86786C14.4453 3.56581 14.5833 3.17578 14.5833 2.722H14.3333H14.0833C14.0833 3.06822 13.9814 3.32619 13.7937 3.52014L13.9733 3.694ZM14.3333 2.722V2.972H14.4533V2.722V2.472H14.3333V2.722ZM14.4533 2.722H14.2033V5.674H14.4533H14.7033V2.722H14.4533ZM14.4533 5.674V5.424H14.3333V5.674V5.924H14.4533V5.674ZM14.3333 5.674L14.5833 5.66937C14.5743 5.18352 14.4191 4.7678 14.1047 4.44388L13.9253 4.618L13.7459 4.79212C13.9595 5.0122 14.0764 5.30048 14.0834 5.67863L14.3333 5.674ZM13.9253 4.618L14.1047 4.44388C13.7869 4.11644 13.3706 3.96 12.8813 3.96V4.21V4.46C13.256 4.46 13.5357 4.57556 13.7459 4.79212L13.9253 4.618ZM12.8813 4.21V3.96H11.9333V4.21V4.46H12.8813V4.21ZM11.9333 4.21H11.6833V8.422H11.9333H12.1833V4.21H11.9333ZM11.9333 8.422H11.6833C11.6833 8.74365 11.7626 9.03098 11.9653 9.23652C12.1686 9.44271 12.4539 9.524 12.7733 9.524V9.274V9.024C12.5328 9.024 12.3981 8.96329 12.3213 8.88548C12.244 8.80702 12.1833 8.66835 12.1833 8.422H11.9333ZM12.7733 9.274V9.524H13.2773V9.274V9.024H12.7733V9.274ZM13.2773 9.274V9.524C14.0966 9.524 14.777 9.3121 15.2902 8.86194L15.1253 8.674L14.9605 8.48606C14.5616 8.8359 14.0101 9.024 13.2773 9.024V9.274ZM15.1253 8.674L15.2902 8.86194C15.8063 8.40921 16.1155 7.7169 16.2486 6.82697L16.0013 6.79L15.7541 6.75303C15.6311 7.57511 15.3563 8.13879 14.9605 8.48606L15.1253 8.674ZM16.0013 6.79V7.04H16.1213V6.79V6.54H16.0013V6.79ZM16.1213 6.79L15.8736 6.75622L15.5136 9.39622L15.7613 9.43L16.009 9.46378L16.369 6.82378L16.1213 6.79ZM15.7613 9.43V9.18H9.10131V9.43V9.68H15.7613V9.43ZM16.2827 9.43H16.0327V9.68H16.2827V9.43ZM16.2827 9.31V9.06H16.0327V9.31H16.2827ZM16.9907 9.046L17.1674 9.22278L17.1674 9.22278L16.9907 9.046ZM16.9907 0.814L17.1674 0.637223L17.1674 0.637223L16.9907 0.814ZM16.2827 0.55H16.0327V0.8H16.2827V0.55ZM16.2827 0.43V0.18H16.0327V0.43H16.2827ZM20.0867 0.43H20.3367V0.18H20.0867V0.43ZM20.0867 0.55V0.8H20.3367V0.55H20.0867ZM19.3787 0.814L19.2019 0.637223L19.2019 0.637223L19.3787 0.814ZM19.3787 9.046L19.5554 8.86922L19.5554 8.86922L19.3787 9.046ZM20.0867 9.31H20.3367V9.06H20.0867V9.31ZM20.0867 9.43V9.68H20.3367V9.43H20.0867ZM16.2827 9.43H16.5327V9.31H16.2827H16.0327V9.43H16.2827ZM16.2827 9.31V9.56H16.2947V9.31V9.06H16.2827V9.31ZM16.2947 9.31V9.56C16.6377 9.56 16.9371 9.45307 17.1674 9.22278L16.9907 9.046L16.8139 8.86922C16.6922 8.99093 16.5276 9.06 16.2947 9.06V9.31ZM16.9907 9.046L17.1674 9.22278C17.3977 8.99248 17.5047 8.69303 17.5047 8.35H17.2547H17.0047C17.0047 8.58297 16.9356 8.74752 16.8139 8.86922L16.9907 9.046ZM17.2547 8.35H17.5047V1.51H17.2547H17.0047V8.35H17.2547ZM17.2547 1.51H17.5047C17.5047 1.16697 17.3977 0.867519 17.1674 0.637223L16.9907 0.814L16.8139 0.990776C16.9356 1.11248 17.0047 1.27703 17.0047 1.51H17.2547ZM16.9907 0.814L17.1674 0.637223C16.9371 0.406927 16.6377 0.3 16.2947 0.3V0.55V0.8C16.5276 0.8 16.6922 0.869073 16.8139 0.990777L16.9907 0.814ZM16.2947 0.55V0.3H16.2827V0.55V0.8H16.2947V0.55ZM16.2827 0.55H16.5327V0.43H16.2827H16.0327V0.55H16.2827ZM16.2827 0.43V0.68H20.0867V0.43V0.18H16.2827V0.43ZM20.0867 0.43H19.8367V0.55H20.0867H20.3367V0.43H20.0867ZM20.0867 0.55V0.3H20.0747V0.55V0.8H20.0867V0.55ZM20.0747 0.55V0.3C19.7316 0.3 19.4322 0.406927 19.2019 0.637223L19.3787 0.814L19.5554 0.990776C19.6771 0.869073 19.8417 0.8 20.0747 0.8V0.55ZM19.3787 0.814L19.2019 0.637223C18.9716 0.867519 18.8647 1.16697 18.8647 1.51H19.1147H19.3647C19.3647 1.27703 19.4337 1.11248 19.5554 0.990776L19.3787 0.814ZM19.1147 1.51H18.8647V8.35H19.1147H19.3647V1.51H19.1147ZM19.1147 8.35H18.8647C18.8647 8.69303 18.9716 8.99248 19.2019 9.22278L19.3787 9.046L19.5554 8.86922C19.4337 8.74752 19.3647 8.58297 19.3647 8.35H19.1147ZM19.3787 9.046L19.2019 9.22278C19.4322 9.45307 19.7316 9.56 20.0747 9.56V9.31V9.06C19.8417 9.06 19.6771 8.99093 19.5554 8.86922L19.3787 9.046ZM20.0747 9.31V9.56H20.0867V9.31V9.06H20.0747V9.31ZM20.0867 9.31H19.8367V9.43H20.0867H20.3367V9.31H20.0867ZM20.0867 9.43V9.18H16.2827V9.43V9.68H20.0867V9.43ZM19.9506 9.43H19.7006V9.68H19.9506V9.43ZM19.9506 9.31V9.06H19.7006V9.31H19.9506ZM20.6586 9.082L20.822 9.27121L20.822 9.27121L20.6586 9.082ZM20.6586 0.814L20.8354 0.637223L20.8354 0.637223L20.6586 0.814ZM19.9506 0.55H19.7006V0.8H19.9506V0.55ZM19.9506 0.43V0.18H19.7006V0.43H19.9506ZM23.7786 0.43H24.0286V0.18H23.7786V0.43ZM23.7786 0.55V0.8H24.0286V0.55H23.7786ZM23.0346 0.814L22.8578 0.637223L22.8578 0.637223L23.0346 0.814ZM22.9506 9.07L22.7586 9.23005L22.7634 9.23584L22.7686 9.24134L22.9506 9.07ZM25.6626 8.614L25.4952 8.42833L25.4952 8.42833L25.6626 8.614ZM26.5866 6.754V6.504H26.3734L26.3398 6.7145L26.5866 6.754ZM26.7066 6.754L26.9544 6.78733L26.9925 6.504H26.7066V6.754ZM26.3466 9.43V9.68H26.5652L26.5944 9.46333L26.3466 9.43ZM19.9506 9.43H20.2006V9.31H19.9506H19.7006V9.43H19.9506ZM19.9506 9.31V9.56H19.9626V9.31V9.06H19.9506V9.31ZM19.9626 9.31V9.56C20.2958 9.56 20.5905 9.47114 20.822 9.27121L20.6586 9.082L20.4952 8.89279C20.3747 8.99686 20.2055 9.06 19.9626 9.06V9.31ZM20.6586 9.082L20.822 9.27121C21.0658 9.06067 21.1726 8.76386 21.1726 8.422H20.9226H20.6726C20.6726 8.65615 20.6034 8.79933 20.4952 8.89279L20.6586 9.082ZM20.9226 8.422H21.1726V1.51H20.9226H20.6726V8.422H20.9226ZM20.9226 1.51H21.1726C21.1726 1.16697 21.0657 0.867519 20.8354 0.637223L20.6586 0.814L20.4818 0.990776C20.6035 1.11248 20.6726 1.27703 20.6726 1.51H20.9226ZM20.6586 0.814L20.8354 0.637223C20.6051 0.406927 20.3057 0.3 19.9626 0.3V0.55V0.8C20.1956 0.8 20.3601 0.869073 20.4818 0.990777L20.6586 0.814ZM19.9626 0.55V0.3H19.9506V0.55V0.8H19.9626V0.55ZM19.9506 0.55H20.2006V0.43H19.9506H19.7006V0.55H19.9506ZM19.9506 0.43V0.68H23.7786V0.43V0.18H19.9506V0.43ZM23.7786 0.43H23.5286V0.55H23.7786H24.0286V0.43H23.7786ZM23.7786 0.55V0.3H23.7306V0.55V0.8H23.7786V0.55ZM23.7306 0.55V0.3C23.3876 0.3 23.0881 0.406927 22.8578 0.637223L23.0346 0.814L23.2114 0.990777C23.3331 0.869073 23.4977 0.8 23.7306 0.8V0.55ZM23.0346 0.814L22.8578 0.637223C22.6275 0.867519 22.5206 1.16697 22.5206 1.51H22.7706H23.0206C23.0206 1.27703 23.0897 1.11248 23.2114 0.990776L23.0346 0.814ZM22.7706 1.51H22.5206V8.47H22.7706H23.0206V1.51H22.7706ZM22.7706 8.47H22.5206C22.5206 8.76314 22.5894 9.02707 22.7586 9.23005L22.9506 9.07L23.1427 8.90995C23.0718 8.82493 23.0206 8.68886 23.0206 8.47H22.7706ZM22.9506 9.07L22.7686 9.24134C22.9673 9.45249 23.2738 9.524 23.6106 9.524V9.274V9.024C23.3235 9.024 23.1899 8.95951 23.1327 8.89866L22.9506 9.07ZM23.6106 9.274V9.524H23.8626V9.274V9.024H23.6106V9.274ZM23.8626 9.274V9.524C24.6308 9.524 25.2921 9.28469 25.83 8.79967L25.6626 8.614L25.4952 8.42833C25.0571 8.82331 24.5184 9.024 23.8626 9.024V9.274ZM25.6626 8.614L25.83 8.79967C26.3696 8.31319 26.6986 7.63635 26.8335 6.7935L26.5866 6.754L26.3398 6.7145C26.2186 7.47165 25.9317 8.03481 25.4952 8.42833L25.6626 8.614ZM26.5866 6.754V7.004H26.7066V6.754V6.504H26.5866V6.754ZM26.7066 6.754L26.4589 6.72067L26.0989 9.39667L26.3466 9.43L26.5944 9.46333L26.9544 6.78733L26.7066 6.754ZM26.3466 9.43V9.18H19.9506V9.43V9.68H26.3466V9.43ZM29.2436 9.43H28.9936V9.68H29.2436V9.43ZM29.2436 9.31V9.06H28.9936V9.31H29.2436ZM29.9396 9.046L29.7628 8.86922L29.7628 8.86922L29.9396 9.046ZM29.9396 0.814L30.1164 0.637223L30.1164 0.637223L29.9396 0.814ZM29.2436 0.55H28.9936V0.8H29.2436V0.55ZM29.2436 0.43V0.18H28.9936V0.43H29.2436ZM34.7516 0.73L34.6449 0.956165L34.6501 0.958453L34.7516 0.73ZM35.7476 1.546L35.5388 1.68363L35.5426 1.68905L35.7476 1.546ZM35.5676 4.258L35.3785 4.09441L35.3785 4.09441L35.5676 4.258ZM34.1036 5.014L34.0682 4.76651L34.033 5.25384L34.1036 5.014ZM34.5836 5.374L34.3996 5.5433L34.4032 5.54713L34.5836 5.374ZM35.1356 6.118L35.3515 5.99203L35.3505 5.99023L35.1356 6.118ZM36.6476 8.71L36.4316 8.83599L36.434 8.83999L36.6476 8.71ZM37.0436 9.154L36.8953 9.35526L36.9012 9.35961L36.9073 9.36361L37.0436 9.154ZM37.5716 9.31H37.8216V9.06H37.5716V9.31ZM37.5716 9.43V9.68H37.8216V9.43H37.5716ZM35.0876 9.43L34.874 9.55999L34.9471 9.68H35.0876V9.43ZM34.7276 8.83L34.509 8.95146L34.5125 8.95745L34.7276 8.83ZM34.3916 8.23L34.172 8.34956L34.174 8.35301L34.3916 8.23ZM33.2156 6.07L33.4352 5.95046L33.4351 5.95029L33.2156 6.07ZM32.8436 5.458L32.6322 5.5915L32.6364 5.59807L32.6409 5.60437L32.8436 5.458ZM32.5436 5.146L32.4176 5.36207L32.4251 5.36612L32.5436 5.146ZM32.0516 5.062V4.812H31.8016V5.062H32.0516ZM32.3156 9.046L32.1388 9.22278L32.1388 9.22278L32.3156 9.046ZM33.0356 9.31H33.2856V9.06H33.0356V9.31ZM33.0356 9.43V9.68H33.2856V9.43H33.0356ZM32.0516 4.906H31.8016V5.156H32.0516V4.906ZM33.8996 4.306L33.7025 4.15223L33.7006 4.15473L33.8996 4.306ZM33.9236 1.186L33.7226 1.33472L33.7241 1.33665L33.9236 1.186ZM32.0516 0.586V0.336H31.8016V0.586H32.0516ZM29.2436 9.43H29.4936V9.31H29.2436H28.9936V9.43H29.2436ZM29.2436 9.31V9.56C29.5866 9.56 29.8861 9.45307 30.1164 9.22278L29.9396 9.046L29.7628 8.86922C29.6411 8.99093 29.4766 9.06 29.2436 9.06V9.31ZM29.9396 9.046L30.1164 9.22278C30.3467 8.99248 30.4536 8.69303 30.4536 8.35H30.2036H29.9536C29.9536 8.58297 29.8845 8.74752 29.7628 8.86922L29.9396 9.046ZM30.2036 8.35H30.4536V1.51H30.2036H29.9536V8.35H30.2036ZM30.2036 1.51H30.4536C30.4536 1.16697 30.3467 0.867519 30.1164 0.637223L29.9396 0.814L29.7628 0.990776C29.8845 1.11248 29.9536 1.27703 29.9536 1.51H30.2036ZM29.9396 0.814L30.1164 0.637223C29.8861 0.406927 29.5866 0.3 29.2436 0.3V0.55V0.8C29.4766 0.8 29.6411 0.869073 29.7628 0.990777L29.9396 0.814ZM29.2436 0.55H29.4936V0.43H29.2436H28.9936V0.55H29.2436ZM29.2436 0.43V0.68H33.2516V0.43V0.18H29.2436V0.43ZM33.2516 0.43V0.68C33.799 0.68 34.261 0.775018 34.6449 0.956108L34.7516 0.73L34.8582 0.503892C34.3942 0.284982 33.8562 0.18 33.2516 0.18V0.43ZM34.7516 0.73L34.6501 0.958453C35.0438 1.13347 35.3363 1.37622 35.5389 1.68358L35.7476 1.546L35.9563 1.40842C35.6949 1.01178 35.3233 0.710533 34.8531 0.501547L34.7516 0.73ZM35.7476 1.546L35.5426 1.68905C35.7502 1.98666 35.8576 2.33948 35.8576 2.758H36.1076H36.3576C36.3576 2.24852 36.225 1.79334 35.9526 1.40295L35.7476 1.546ZM36.1076 2.758H35.8576C35.8576 3.28593 35.6967 3.72679 35.3785 4.09441L35.5676 4.258L35.7566 4.42159C36.1585 3.95721 36.3576 3.39807 36.3576 2.758H36.1076ZM35.5676 4.258L35.3785 4.09441C35.0632 4.45883 34.6329 4.68584 34.0682 4.76651L34.1036 5.014L34.1389 5.26149C34.8063 5.16616 35.352 4.88917 35.7566 4.42159L35.5676 4.258ZM34.1036 5.014L34.033 5.25384C34.1012 5.2739 34.2228 5.35107 34.3996 5.54326L34.5836 5.374L34.7676 5.20474C34.5764 4.99693 34.3779 4.8341 34.1741 4.77416L34.1036 5.014ZM34.5836 5.374L34.4032 5.54713C34.5793 5.73054 34.7522 5.96239 34.9207 6.24577L35.1356 6.118L35.3505 5.99023C35.167 5.68161 34.9719 5.41746 34.7639 5.20087L34.5836 5.374ZM35.1356 6.118L34.9196 6.24397L36.4316 8.83597L36.6476 8.71L36.8635 8.58403L35.3515 5.99203L35.1356 6.118ZM36.6476 8.71L36.434 8.83999C36.5606 9.04788 36.7137 9.22145 36.8953 9.35526L37.0436 9.154L37.1919 8.95274C37.0695 8.86255 36.9586 8.74012 36.8611 8.58001L36.6476 8.71ZM37.0436 9.154L36.9073 9.36361C37.1082 9.49414 37.3315 9.56 37.5716 9.56V9.31V9.06C37.4276 9.06 37.299 9.02186 37.1798 8.94439L37.0436 9.154ZM37.5716 9.31H37.3216V9.43H37.5716H37.8216V9.31H37.5716ZM37.5716 9.43V9.18H35.0876V9.43V9.68H37.5716V9.43ZM35.0876 9.43L35.3011 9.30001C35.1897 9.11698 35.0702 8.91784 34.9427 8.70255L34.7276 8.83L34.5125 8.95745C34.6409 9.17416 34.7615 9.37502 34.874 9.55999L35.0876 9.43ZM34.7276 8.83L34.9461 8.70859C34.8259 8.49214 34.7136 8.2916 34.6092 8.10699L34.3916 8.23L34.174 8.35301C34.2776 8.5364 34.3893 8.73586 34.5091 8.95141L34.7276 8.83ZM34.3916 8.23L34.6112 8.11046L33.4352 5.95046L33.2156 6.07L32.996 6.18954L34.172 8.34954L34.3916 8.23ZM33.2156 6.07L33.4351 5.95029C33.289 5.68243 33.1592 5.46799 33.0463 5.31163L32.8436 5.458L32.6409 5.60437C32.736 5.73601 32.8542 5.92957 32.9961 6.18971L33.2156 6.07ZM32.8436 5.458L33.055 5.3245C32.947 5.15357 32.8188 5.01023 32.6621 4.92588L32.5436 5.146L32.4251 5.36612C32.4764 5.39377 32.5482 5.45843 32.6322 5.5915L32.8436 5.458ZM32.5436 5.146L32.6696 4.93006C32.5238 4.84502 32.3522 4.812 32.1716 4.812V5.062V5.312C32.2949 5.312 32.3714 5.33498 32.4176 5.36194L32.5436 5.146ZM32.1716 5.062V4.812H32.0516V5.062V5.312H32.1716V5.062ZM32.0516 5.062H31.8016V8.35H32.0516H32.3016V5.062H32.0516ZM32.0516 8.35H31.8016C31.8016 8.69303 31.9085 8.99248 32.1388 9.22278L32.3156 9.046L32.4924 8.86922C32.3707 8.74752 32.3016 8.58297 32.3016 8.35H32.0516ZM32.3156 9.046L32.1388 9.22278C32.3691 9.45307 32.6686 9.56 33.0116 9.56V9.31V9.06C32.7786 9.06 32.6141 8.99093 32.4924 8.86922L32.3156 9.046ZM33.0116 9.31V9.56H33.0356V9.31V9.06H33.0116V9.31ZM33.0356 9.31H32.7856V9.43H33.0356H33.2856V9.31H33.0356ZM33.0356 9.43V9.18H29.2436V9.43V9.68H33.0356V9.43ZM32.0516 4.906V5.156H32.6636V4.906V4.656H32.0516V4.906ZM32.6636 4.906V5.156C33.2585 5.156 33.7455 4.92198 34.0986 4.45727L33.8996 4.306L33.7006 4.15473C33.4457 4.49002 33.1087 4.656 32.6636 4.656V4.906ZM33.8996 4.306L34.0967 4.45976C34.4511 4.00542 34.6176 3.42689 34.6176 2.746H34.3676H34.1176C34.1176 3.34511 33.9721 3.80658 33.7025 4.15224L33.8996 4.306ZM34.3676 2.746H34.6176C34.6176 2.06094 34.461 1.48278 34.1231 1.03535L33.9236 1.186L33.7241 1.33665C33.9782 1.67322 34.1176 2.13506 34.1176 2.746H34.3676ZM33.9236 1.186L34.1246 1.03729C33.7825 0.575062 33.3167 0.336 32.7476 0.336V0.586V0.836C33.1545 0.836 33.4727 0.996937 33.7226 1.33471L33.9236 1.186ZM32.7476 0.586V0.336H32.0516V0.586V0.836H32.7476V0.586ZM32.0516 0.586H31.8016V4.906H32.0516H32.3016V0.586H32.0516ZM36.9829 9.43H36.7329V9.68H36.9829V9.43ZM36.9829 9.31L36.9568 9.06137L36.7329 9.08493V9.31H36.9829ZM37.4389 9.094L37.6 9.28523L37.6008 9.28449L37.4389 9.094ZM37.8829 8.59L38.0897 8.73058L38.0897 8.73058L37.8829 8.59ZM38.1949 8.002L37.9634 7.90739L37.9609 7.91422L38.1949 8.002ZM41.3629 0.25V-2.38419e-07H41.195L41.1315 0.155425L41.3629 0.25ZM41.4709 0.25L41.7029 0.156657L41.6398 -2.38419e-07H41.4709V0.25ZM44.5909 8.002L44.359 8.09534L44.3591 8.09558L44.5909 8.002ZM45.8029 9.31H46.0529V9.06H45.8029V9.31ZM45.8029 9.43V9.68H46.0529V9.43H45.8029ZM41.9629 9.43H41.7129V9.68H41.9629V9.43ZM41.9629 9.31V9.06H41.7129V9.31H41.9629ZM42.7309 8.986L42.5139 8.86196L42.5124 8.86459L42.7309 8.986ZM42.6829 8.062L42.451 8.15539L42.4515 8.15647L42.6829 8.062ZM41.9629 6.274L42.1948 6.18062L42.1318 6.024H41.9629V6.274ZM39.0709 6.274V6.024H38.9021L38.839 6.18058L39.0709 6.274ZM38.3989 7.942L38.6296 8.03854L38.6308 8.03542L38.3989 7.942ZM38.4469 8.878L38.2352 9.01112L38.2399 9.01808L38.4469 8.878ZM39.3229 9.31H39.5729V9.0698L39.3329 9.0602L39.3229 9.31ZM39.3229 9.43V9.68H39.5729V9.43H39.3229ZM39.1309 6.118L38.8993 6.02391L38.7595 6.368H39.1309V6.118ZM41.9029 6.118V6.368H42.2708L42.1354 6.02599L41.9029 6.118ZM40.5349 2.662L40.7674 2.56999L40.5379 1.99035L40.3033 2.56791L40.5349 2.662ZM36.9829 9.43H37.2329V9.31H36.9829H36.7329V9.43H36.9829ZM36.9829 9.31L37.0091 9.55863C37.2237 9.53603 37.4211 9.43584 37.6 9.28523L37.4389 9.094L37.2779 8.90277C37.1528 9.00816 37.0461 9.05197 36.9568 9.06137L36.9829 9.31ZM37.4389 9.094L37.6008 9.28449C37.7803 9.13193 37.9429 8.9464 38.0897 8.73058L37.8829 8.59L37.6762 8.44942C37.551 8.6336 37.4175 8.78407 37.277 8.90352L37.4389 9.094ZM37.8829 8.59L38.0897 8.73058C38.2349 8.51698 38.3489 8.30338 38.429 8.08978L38.1949 8.002L37.9609 7.91422C37.897 8.08462 37.803 8.26302 37.6762 8.44942L37.8829 8.59ZM38.1949 8.002L38.4264 8.09657L41.5944 0.344574L41.3629 0.25L41.1315 0.155425L37.9635 7.90743L38.1949 8.002ZM41.3629 0.25V0.5H41.4709V0.25V-2.38419e-07H41.3629V0.25ZM41.4709 0.25L41.239 0.343342L44.359 8.09534L44.5909 8.002L44.8229 7.90866L41.7029 0.156657L41.4709 0.25ZM44.5909 8.002L44.3591 8.09558C44.5402 8.5443 44.7394 8.90141 44.963 9.15015C45.1888 9.40121 45.4573 9.56 45.7669 9.56V9.31V9.06C45.6446 9.06 45.5011 9.00079 45.3348 8.81585C45.1665 8.62859 44.9936 8.3317 44.8228 7.90842L44.5909 8.002ZM45.7669 9.31V9.56H45.8029V9.31V9.06H45.7669V9.31ZM45.8029 9.31H45.5529V9.43H45.8029H46.0529V9.31H45.8029ZM45.8029 9.43V9.18H41.9629V9.43V9.68H45.8029V9.43ZM41.9629 9.43H42.2129V9.31H41.9629H41.7129V9.43H41.9629ZM41.9629 9.31V9.56H42.0109V9.31V9.06H41.9629V9.31ZM42.0109 9.31V9.56C42.4158 9.56 42.7668 9.43614 42.9495 9.10741L42.7309 8.986L42.5124 8.86459C42.455 8.96786 42.3261 9.06 42.0109 9.06V9.31ZM42.7309 8.986L42.948 9.11004C43.1331 8.78605 43.085 8.38551 42.9144 7.96753L42.6829 8.062L42.4515 8.15647C42.6009 8.52249 42.5847 8.73795 42.5139 8.86197L42.7309 8.986ZM42.6829 8.062L42.9148 7.96862L42.1948 6.18062L41.9629 6.274L41.731 6.36738L42.451 8.15538L42.6829 8.062ZM41.9629 6.274V6.024H39.0709V6.274V6.524H41.9629V6.274ZM39.0709 6.274L38.839 6.18058L38.167 7.84858L38.3989 7.942L38.6308 8.03542L39.3028 6.36742L39.0709 6.274ZM38.3989 7.942L38.1683 7.84547C37.9976 8.25341 38.0099 8.65256 38.2353 9.01104L38.4469 8.878L38.6586 8.74496C38.5319 8.54344 38.5123 8.31859 38.6295 8.03853L38.3989 7.942ZM38.4469 8.878L38.2399 9.01808C38.4783 9.37055 38.8531 9.54141 39.3129 9.5598L39.3229 9.31L39.3329 9.0602C38.9928 9.0466 38.7836 8.92945 38.654 8.73792L38.4469 8.878ZM39.3229 9.31H39.0729V9.43H39.3229H39.5729V9.31H39.3229ZM39.3229 9.43V9.18H36.9829V9.43V9.68H39.3229V9.43ZM39.1309 6.118V6.368H41.9029V6.118V5.868H39.1309V6.118ZM41.9029 6.118L42.1354 6.02599L40.7674 2.56999L40.5349 2.662L40.3025 2.75401L41.6705 6.21001L41.9029 6.118ZM40.5349 2.662L40.3033 2.56791L38.8993 6.02391L39.1309 6.118L39.3626 6.21209L40.7666 2.75609L40.5349 2.662ZM45.7811 9.43L45.5323 9.40512L45.5048 9.68H45.7811V9.43ZM45.7931 9.31V9.06H45.5668L45.5443 9.28512L45.7931 9.31ZM46.5131 9.046L46.3363 8.86922L46.3363 8.86922L46.5131 9.046ZM46.7771 4.27H47.0271V4.18472L46.975 4.11722L46.7771 4.27ZM44.2571 1.006L44.0585 1.15786L44.0592 1.15878L44.2571 1.006ZM43.8851 0.682L43.7493 0.891893L43.7563 0.896458L43.7637 0.900539L43.8851 0.682ZM43.3571 0.55H43.1071V0.8H43.3571V0.55ZM43.3571 0.43V0.18H43.1071V0.43H43.3571ZM47.4251 0.43H47.6751V0.18H47.4251V0.43ZM47.4251 0.55V0.8H47.6751V0.55H47.4251ZM46.6091 0.934L46.3774 0.839893L46.3759 0.843752L46.6091 0.934ZM46.8371 1.822L46.6343 1.96821L46.636 1.97053L46.8371 1.822ZM48.3971 3.934L48.196 4.08253L48.3966 4.3541L48.5978 4.08301L48.3971 3.934ZM49.8491 1.978L50.0498 2.12702L50.0509 2.1255L49.8491 1.978ZM50.1971 0.958L49.9554 1.02197L49.9559 1.02378L50.1971 0.958ZM49.3691 0.55H49.1191V0.8H49.3691V0.55ZM49.3691 0.43V0.18H49.1191V0.43H49.3691ZM51.6491 0.43H51.8991V0.18H51.6491V0.43ZM51.6491 0.55L51.6638 0.799569L51.8991 0.785727V0.55H51.6491ZM50.9171 0.91L50.7371 0.736435L50.7339 0.739887L50.9171 0.91ZM50.1971 1.786L49.9976 1.63529L49.9962 1.63719L50.1971 1.786ZM48.5171 4.054L48.3162 3.90519L48.2671 3.97149V4.054H48.5171ZM48.7811 9.046L48.6004 9.21885L48.6043 9.22278L48.7811 9.046ZM49.4771 9.31L49.7259 9.28512L49.7033 9.06H49.4771V9.31ZM49.4891 9.43V9.68H49.7653L49.7379 9.40512L49.4891 9.43ZM45.7811 9.43L46.0299 9.45488L46.0419 9.33488L45.7931 9.31L45.5443 9.28512L45.5323 9.40512L45.7811 9.43ZM45.7931 9.31V9.56H45.8171V9.31V9.06H45.7931V9.31ZM45.8171 9.31V9.56C46.1601 9.56 46.4596 9.45307 46.6899 9.22278L46.5131 9.046L46.3363 8.86922C46.2146 8.99093 46.0501 9.06 45.8171 9.06V9.31ZM46.5131 9.046L46.6899 9.22278C46.9202 8.99248 47.0271 8.69303 47.0271 8.35H46.7771H46.5271C46.5271 8.58297 46.458 8.74752 46.3363 8.86922L46.5131 9.046ZM46.7771 8.35H47.0271V4.27H46.7771H46.5271V8.35H46.7771ZM46.7771 4.27L46.975 4.11722L44.455 0.853221L44.2571 1.006L44.0592 1.15878L46.5792 4.42278L46.7771 4.27ZM44.2571 1.006L44.4557 0.854138C44.3316 0.691942 44.1817 0.560804 44.0065 0.463461L43.8851 0.682L43.7637 0.900539C43.8765 0.963195 43.9745 1.04806 44.0585 1.15786L44.2571 1.006ZM43.8851 0.682L44.0209 0.472107C43.8344 0.351429 43.6117 0.3 43.3691 0.3V0.55V0.8C43.5424 0.8 43.6638 0.836571 43.7493 0.891893L43.8851 0.682ZM43.3691 0.55V0.3H43.3571V0.55V0.8H43.3691V0.55ZM43.3571 0.55H43.6071V0.43H43.3571H43.1071V0.55H43.3571ZM43.3571 0.43V0.68H47.4251V0.43V0.18H43.3571V0.43ZM47.4251 0.43H47.1751V0.55H47.4251H47.6751V0.43H47.4251ZM47.4251 0.55V0.3C46.9514 0.3 46.5401 0.439486 46.3775 0.839906L46.6091 0.934L46.8407 1.02809C46.886 0.916515 47.0188 0.8 47.4251 0.8V0.55ZM46.6091 0.934L46.3759 0.843752C46.2345 1.20927 46.3673 1.59787 46.6343 1.9682L46.8371 1.822L47.0399 1.6758C46.8109 1.35813 46.7917 1.15473 46.8422 1.02425L46.6091 0.934ZM46.8371 1.822L46.636 1.97053L48.196 4.08253L48.3971 3.934L48.5982 3.78547L47.0382 1.67347L46.8371 1.822ZM48.3971 3.934L48.5978 4.08301L50.0498 2.12701L49.8491 1.978L49.6484 1.82899L48.1964 3.78499L48.3971 3.934ZM49.8491 1.978L50.0509 2.1255C50.3631 1.6983 50.5423 1.27373 50.4383 0.892221L50.1971 0.958L49.9559 1.02378C49.9959 1.17027 49.9431 1.4257 49.6472 1.8305L49.8491 1.978ZM50.1971 0.958L50.4388 0.894027C50.3824 0.681112 50.2426 0.524333 50.0466 0.427747C49.8603 0.33595 49.6281 0.3 49.3691 0.3V0.55V0.8C49.5901 0.8 49.7359 0.83205 49.8256 0.876253C49.9056 0.915667 49.9398 0.962888 49.9554 1.02197L50.1971 0.958ZM49.3691 0.55H49.6191V0.43H49.3691H49.1191V0.55H49.3691ZM49.3691 0.43V0.68H51.6491V0.43V0.18H49.3691V0.43ZM51.6491 0.43H51.3991V0.55H51.6491H51.8991V0.43H51.6491ZM51.6491 0.55L51.6344 0.300432C51.2908 0.320645 50.9901 0.474156 50.7371 0.736466L50.9171 0.91L51.0971 1.08353C51.2761 0.897844 51.4634 0.811355 51.6638 0.799569L51.6491 0.55ZM50.9171 0.91L50.7339 0.739887C50.5181 0.972231 50.2726 1.2714 49.9976 1.63529L50.1971 1.786L50.3966 1.93671C50.6656 1.5806 50.9 1.29577 51.1003 1.08011L50.9171 0.91ZM50.1971 1.786L49.9962 1.63719L48.3162 3.90519L48.5171 4.054L48.718 4.20281L50.398 1.93481L50.1971 1.786ZM48.5171 4.054H48.2671V8.35H48.5171H48.7671V4.054H48.5171ZM48.5171 8.35H48.2671C48.2671 8.68738 48.3753 8.98346 48.6004 9.21881L48.7811 9.046L48.9618 8.87319C48.8349 8.74055 48.7671 8.57262 48.7671 8.35H48.5171ZM48.7811 9.046L48.6043 9.22278C48.8318 9.45024 49.1216 9.56 49.4531 9.56V9.31V9.06C49.2406 9.06 49.0824 8.99376 48.9579 8.86922L48.7811 9.046ZM49.4531 9.31V9.56H49.4771V9.31V9.06H49.4531V9.31ZM49.4771 9.31L49.2283 9.33488L49.2403 9.45488L49.4891 9.43L49.7379 9.40512L49.7259 9.28512L49.4771 9.31ZM49.4891 9.43V9.18H45.7811V9.43V9.68H49.4891V9.43ZM53.9252 9.19L54.041 8.96848L53.9252 9.19ZM52.7132 8.038L52.4946 8.15943L52.497 8.16353L52.7132 8.038ZM52.0292 0.814L52.2059 0.637223L52.2059 0.637223L52.0292 0.814ZM51.2852 0.55H51.0352V0.8H51.2852V0.55ZM51.2852 0.43V0.18H51.0352V0.43H51.2852ZM55.1492 0.43H55.3992V0.18H55.1492V0.43ZM55.1492 0.55V0.8H55.3992V0.55H55.1492ZM54.4172 0.814L54.2404 0.637223L54.2404 0.637223L54.4172 0.814ZM54.8012 8.29L54.6126 8.45422L54.6155 8.45741L54.8012 8.29ZM58.3532 8.278L58.5417 8.4422L58.543 8.4407L58.3532 8.278ZM58.6892 0.874L58.8624 0.693792L58.8624 0.693791L58.6892 0.874ZM57.8612 0.55H57.6112V0.788643L57.8495 0.79973L57.8612 0.55ZM57.8612 0.43V0.18H57.6112V0.43H57.8612ZM60.3452 0.43H60.5952V0.18H60.3452V0.43ZM60.3452 0.55L60.3568 0.79973L60.5952 0.788643V0.55H60.3452ZM59.5172 0.874L59.3439 0.693791L59.3439 0.693791L59.5172 0.874ZM58.7852 8.026L58.5674 7.90309L58.566 7.90579L58.7852 8.026ZM57.5972 9.19L57.7144 9.41078L57.7157 9.41012L57.5972 9.19ZM55.7612 9.598V9.348C55.0895 9.348 54.5188 9.21838 54.041 8.96848L53.9252 9.19L53.8093 9.41152C54.3715 9.70562 55.0248 9.848 55.7612 9.848V9.598ZM53.9252 9.19L54.041 8.96848C53.5618 8.71782 53.1931 8.36665 52.9294 7.91247L52.7132 8.038L52.497 8.16353C52.8092 8.70135 53.2485 9.11818 53.8093 9.41152L53.9252 9.19ZM52.7132 8.038L52.9317 7.91659C52.6755 7.45546 52.5432 6.91059 52.5432 6.274H52.2932H52.0432C52.0432 6.98141 52.1908 7.61254 52.4946 8.15941L52.7132 8.038ZM52.2932 6.274H52.5432V1.51H52.2932H52.0432V6.274H52.2932ZM52.2932 1.51H52.5432C52.5432 1.16697 52.4362 0.867519 52.2059 0.637223L52.0292 0.814L51.8524 0.990776C51.9741 1.11248 52.0432 1.27703 52.0432 1.51H52.2932ZM52.0292 0.814L52.2059 0.637223C51.9756 0.406927 51.6762 0.3 51.3332 0.3V0.55V0.8C51.5661 0.8 51.7307 0.869073 51.8524 0.990777L52.0292 0.814ZM51.3332 0.55V0.3H51.2852V0.55V0.8H51.3332V0.55ZM51.2852 0.55H51.5352V0.43H51.2852H51.0352V0.55H51.2852ZM51.2852 0.43V0.68H55.1492V0.43V0.18H51.2852V0.43ZM55.1492 0.43H54.8992V0.55H55.1492H55.3992V0.43H55.1492ZM55.1492 0.55V0.3H55.1132V0.55V0.8H55.1492V0.55ZM55.1132 0.55V0.3C54.7701 0.3 54.4707 0.406927 54.2404 0.637223L54.4172 0.814L54.5939 0.990777C54.7156 0.869073 54.8802 0.8 55.1132 0.8V0.55ZM54.4172 0.814L54.2404 0.637223C54.0101 0.867519 53.9032 1.16697 53.9032 1.51H54.1532H54.4032C54.4032 1.27703 54.4722 1.11248 54.5939 0.990776L54.4172 0.814ZM54.1532 1.51H53.9032V6.274H54.1532H54.4032V1.51H54.1532ZM54.1532 6.274H53.9032C53.9032 7.16448 54.1306 7.9008 54.6126 8.4542L54.8012 8.29L54.9897 8.12581C54.6077 7.6872 54.4032 7.07952 54.4032 6.274H54.1532ZM54.8012 8.29L54.6155 8.45741C55.1094 9.00523 55.7727 9.272 56.5772 9.272V9.022V8.772C55.8936 8.772 55.3729 8.55077 54.9868 8.12259L54.8012 8.29ZM56.5772 9.022V9.272C57.3899 9.272 58.0551 9.00083 58.5417 8.4422L58.3532 8.278L58.1646 8.11381C57.7872 8.54717 57.2684 8.772 56.5772 8.772V9.022ZM58.3532 8.278L58.543 8.4407C59.0229 7.8808 59.2512 7.15008 59.2512 6.274H59.0012H58.7512C58.7512 7.06192 58.5474 7.6672 58.1633 8.1153L58.3532 8.278ZM59.0012 6.274H59.2512V1.69H59.0012H58.7512V6.274H59.0012ZM59.0012 1.69H59.2512C59.2512 1.2921 59.1288 0.94988 58.8624 0.693792L58.6892 0.874L58.5159 1.05421C58.6655 1.19812 58.7512 1.3999 58.7512 1.69H59.0012ZM58.6892 0.874L58.8624 0.693791C58.6026 0.443971 58.265 0.318513 57.8728 0.30027L57.8612 0.55L57.8495 0.79973C58.1453 0.813487 58.3597 0.904029 58.5159 1.05421L58.6892 0.874ZM57.8612 0.55H58.1112V0.43H57.8612H57.6112V0.55H57.8612ZM57.8612 0.43V0.68H60.3452V0.43V0.18H57.8612V0.43ZM60.3452 0.43H60.0952V0.55H60.3452H60.5952V0.43H60.3452ZM60.3452 0.55L60.3335 0.30027C59.9413 0.318513 59.6037 0.443971 59.3439 0.693791L59.5172 0.874L59.6904 1.05421C59.8466 0.904029 60.061 0.813487 60.3568 0.79973L60.3452 0.55ZM59.5172 0.874L59.3439 0.693791C59.0775 0.94988 58.9552 1.2921 58.9552 1.69H59.2052H59.4552C59.4552 1.3999 59.5408 1.19812 59.6904 1.05421L59.5172 0.874ZM59.2052 1.69H58.9552V6.274H59.2052H59.4552V1.69H59.2052ZM59.2052 6.274H58.9552C58.9552 6.91071 58.8228 7.45084 58.5674 7.9031L58.7852 8.026L59.0029 8.1489C59.3076 7.60916 59.4552 6.98129 59.4552 6.274H59.2052ZM58.7852 8.026L58.566 7.90579C58.3182 8.35755 57.9581 8.71171 57.4786 8.96988L57.5972 9.19L57.7157 9.41012C58.2762 9.10829 58.7081 8.68645 59.0044 8.14621L58.7852 8.026ZM57.5972 9.19L57.4799 8.96922C57.0113 9.21814 56.4415 9.348 55.7612 9.348V9.598V9.848C56.5048 9.848 57.159 9.70587 57.7144 9.41078L57.5972 9.19Z" fill="black" mask="url(#path-1-outside-1_1_2)"/>
</svg>
